<svg xmlns="http://www.w3.org/2000/svg" viewBox="0 0 129 40" width="129" height="40">
	<style>
		tspan { white-space:pre }
		.shp0 { fill: #000000 } 
		.shp1 { fill: #ffffff } 
	</style>
	<g id="Layer">
		<path id="Layer" class="shp0" d="M124.2 40L4.2 40C2 40 0.2 38.2 0.2 36L0.2 4C0.2 1.8 2 0 4.2 0L124.2 0C126.4 0 128.2 1.8 128.2 4L128.2 36C128.2 38.2 126.4 40 124.2 40Z" />
		<path id="Layer" class="shp1" d="M27.2 19.8C27.2 16.7 29.8 15.2 29.9 15.1C28.4 13 26.2 12.7 25.4 12.6C23.5 12.4 21.6 13.7 20.7 13.7C19.7 13.7 18.2 12.6 16.6 12.6C14.5 12.6 12.6 13.8 11.5 15.7C9.3 19.5 10.9 25.1 13 28.2C14.1 29.7 15.3 31.4 16.9 31.3C18.5 31.2 19.1 30.3 21 30.3C22.9 30.3 23.4 31.3 25.1 31.3C26.8 31.3 27.9 29.8 28.9 28.3C30.1 26.6 30.6 24.9 30.6 24.8C30.5 24.7 27.2 23.5 27.2 19.8Z" />
		<path id="Layer" class="shp1" d="M24.1 10.6C24.9 9.5 25.5 8.1 25.4 6.6C24.2 6.7 22.6 7.4 21.8 8.5C21 9.4 20.3 10.9 20.5 12.3C21.8 12.4 23.2 11.6 24.1 10.6Z" />
		<path id="Layer" fill-rule="evenodd" class="shp1" d="M50 31.1L47.8 31.1L46.6 27.3L42.4 27.3L41.3 31.1L39.2 31.1L43.4 18.2L46 18.2L50 31.1ZM46.2 25.7L45.1 22.3C45 22 44.8 21.1 44.4 19.9C44.3 20.4 44.1 21.3 43.8 22.3L42.7 25.7L46.2 25.7Z" />
		<path id="Layer" fill-rule="evenodd" class="shp1" d="M60.7 26.4C60.7 28 60.3 29.2 59.4 30.2C58.6 31 57.7 31.4 56.5 31.4C55.3 31.4 54.4 31 53.9 30.1L53.9 35L51.8 35L51.8 25C51.8 24 51.8 23 51.7 21.9L53.5 21.9L53.6 23.4C54.3 22.3 55.3 21.7 56.7 21.7C57.8 21.7 58.7 22.1 59.4 23C60.3 23.8 60.7 24.9 60.7 26.4ZM58.6 26.4C58.6 25.5 58.4 24.7 58 24.2C57.6 23.6 57 23.3 56.2 23.3C55.7 23.3 55.2 23.5 54.8 23.8C54.4 24.1 54.1 24.6 54 25.1C53.9 25.4 53.9 25.6 53.9 25.7L53.9 27.3C53.9 28 54.1 28.5 54.5 29C54.9 29.5 55.5 29.7 56.1 29.7C56.9 29.7 57.5 29.4 57.9 28.8C58.4 28.2 58.6 27.4 58.6 26.4Z" />
		<path id="Layer" fill-rule="evenodd" class="shp1" d="M71.4 26.4C71.4 28 71 29.2 70.1 30.2C69.3 31 68.4 31.4 67.2 31.4C66 31.4 65.1 31 64.6 30.1L64.6 35L62.5 35L62.5 25C62.5 24 62.5 23 62.4 21.9L64.2 21.9L64.3 23.4C65 22.3 66 21.7 67.4 21.7C68.5 21.7 69.4 22.1 70.1 23C71 23.8 71.4 24.9 71.4 26.4ZM69.3 26.4C69.3 25.5 69.1 24.7 68.7 24.2C68.3 23.6 67.7 23.3 66.9 23.3C66.4 23.3 65.9 23.5 65.5 23.8C65.1 24.1 64.8 24.6 64.7 25.1C64.6 25.4 64.6 25.6 64.6 25.7L64.6 27.3C64.6 28 64.8 28.5 65.2 29C65.6 29.5 66.2 29.7 66.8 29.7C67.6 29.7 68.2 29.4 68.6 28.8C69.1 28.2 69.3 27.4 69.3 26.4Z" />
		<path id="Layer" class="shp1" d="M83.4 27.5C83.4 28.6 83 29.5 82.3 30.2C81.5 31 80.3 31.3 78.8 31.3C77.4 31.3 76.3 31 75.5 30.5L76 28.8C76.9 29.3 77.9 29.6 79 29.6C79.8 29.6 80.4 29.4 80.8 29.1C81.2 28.7 81.4 28.3 81.4 27.7C81.4 27.2 81.2 26.7 80.9 26.4C80.5 26 79.9 25.7 79.1 25.4C76.8 24.6 75.7 23.3 75.7 21.7C75.7 20.6 76.1 19.8 76.9 19.1C77.7 18.4 78.7 18.1 80.1 18.1C81.3 18.1 82.2 18.3 83 18.7L82.5 20.4C81.8 20 81 19.8 80 19.8C79.3 19.8 78.7 20 78.3 20.3C78 20.6 77.8 21 77.8 21.5C77.8 22 78 22.4 78.4 22.8C78.7 23.1 79.4 23.4 80.3 23.8C81.4 24.2 82.2 24.8 82.8 25.4C83.1 25.9 83.4 26.6 83.4 27.5Z" />
		<path id="Layer" class="shp1" d="M90.2 23.4L87.9 23.4L87.9 27.9C87.9 29 88.3 29.6 89.1 29.6C89.5 29.6 89.8 29.6 90 29.5L90.1 31.1C89.7 31.3 89.2 31.3 88.5 31.3C87.7 31.3 87 31.1 86.6 30.6C86.1 30.1 85.9 29.3 85.9 28.1L85.9 23.4L84.5 23.4L84.5 21.8L85.9 21.8L85.9 20.1L87.9 19.5L87.9 21.8L90.2 21.8L90.2 23.4Z" />
		<path id="Layer" fill-rule="evenodd" class="shp1" d="M100.5 26.4C100.5 27.8 100.1 29 99.3 29.9C98.4 30.8 97.3 31.3 95.9 31.3C94.5 31.3 93.4 30.8 92.6 29.9C91.8 29 91.4 27.9 91.4 26.5C91.4 25.1 91.8 23.9 92.7 23C93.5 22.1 94.7 21.6 96.1 21.6C97.5 21.6 98.6 22.1 99.4 23C100.1 23.9 100.5 25 100.5 26.4ZM98.3 26.5C98.3 25.6 98.1 24.9 97.7 24.3C97.3 23.6 96.6 23.2 95.8 23.2C95 23.2 94.3 23.6 93.9 24.3C93.5 24.9 93.3 25.7 93.3 26.5C93.3 27.4 93.5 28.1 93.9 28.7C94.3 29.4 95 29.8 95.8 29.8C96.6 29.8 97.2 29.4 97.7 28.7C98.1 28.1 98.3 27.3 98.3 26.5Z" />
		<path id="Layer" class="shp1" d="M107.2 23.6C107 23.6 106.8 23.5 106.5 23.5C105.8 23.5 105.2 23.8 104.8 24.3C104.5 24.8 104.3 25.4 104.3 26.1L104.3 31L102.2 31L102.2 24.6C102.2 23.5 102.2 22.6 102.1 21.7L103.9 21.7L104 23.5L104.1 23.5C104.3 22.9 104.7 22.4 105.1 22C105.6 21.7 106.1 21.5 106.6 21.5C106.8 21.5 107 21.5 107.1 21.5L107.1 23.6L107.2 23.6Z" />
		<path id="Layer" fill-rule="evenodd" class="shp1" d="M116.4 26C116.4 26.4 116.4 26.7 116.3 26.9L110.1 26.9C110.1 27.8 110.4 28.5 111 29C111.5 29.4 112.2 29.7 113 29.7C113.9 29.7 114.8 29.6 115.5 29.3L115.8 30.7C114.9 31.1 113.9 31.3 112.7 31.3C111.3 31.3 110.1 30.9 109.3 30C108.5 29.2 108.1 28 108.1 26.6C108.1 25.2 108.5 24 109.2 23.1C110 22.1 111.1 21.6 112.5 21.6C113.8 21.6 114.9 22.1 115.5 23.1C116.2 23.9 116.4 24.9 116.4 26ZM114.5 25.4L114.5 25.4C114.5 25.43 114.5 25.47 114.5 25.5L114.5 25.4ZM114.1 23.9C113.7 23.3 113.2 23 112.5 23C111.8 23 111.3 23.3 110.9 23.8C110.6 24.2 110.4 24.8 110.3 25.4L114.5 25.4C114.49 24.84 114.38 24.37 114.1 23.9Z" />
		<path id="Layer" fill-rule="evenodd" class="shp1" d="M45.6 10.3C45.6 11.4 45.3 12.3 44.6 12.9C44 13.4 43.1 13.7 41.9 13.7C41.3 13.7 40.8 13.7 40.4 13.6L40.4 7.4C40.9 7.3 41.5 7.3 42.2 7.3C43.3 7.3 44.1 7.5 44.7 8C45.2 8.5 45.6 9.3 45.6 10.3ZM44.5 10.3C44.5 9.6 44.3 9 43.9 8.6C43.5 8.2 42.9 8 42.2 8C41.9 8 41.6 8 41.4 8.1L41.4 12.8C41.5 12.8 41.8 12.8 42.1 12.8C42.9 12.8 43.5 12.6 43.9 12.2C44.3 11.8 44.5 11.1 44.5 10.3Z" />
		<path id="Layer" fill-rule="evenodd" class="shp1" d="M51.2 11.3C51.2 12 51 12.6 50.6 13C50.2 13.5 49.6 13.7 48.9 13.7C48.2 13.7 47.7 13.5 47.3 13C46.9 12.6 46.7 12 46.7 11.3C46.7 10.6 46.9 10 47.3 9.6C47.7 9.1 48.3 8.9 49 8.9C49.7 8.9 50.2 9.1 50.6 9.6C51 10 51.2 10.6 51.2 11.3ZM50.2 11.3C50.2 10.9 50.1 10.5 49.9 10.2C49.7 9.8 49.4 9.7 49 9.7C48.6 9.7 48.3 9.9 48.1 10.2C47.9 10.5 47.8 10.9 47.8 11.3C47.8 11.7 47.9 12.1 48.1 12.4C48.3 12.8 48.6 12.9 49 12.9C49.4 12.9 49.7 12.7 49.9 12.3C50.1 12.1 50.2 11.7 50.2 11.3Z" />
		<path id="Layer" class="shp1" d="M58.9 9L57.5 13.6L56.6 13.6L56 11.6C55.8 11.1 55.7 10.6 55.6 10.1L55.6 10.1C55.5 10.6 55.4 11.1 55.2 11.6L54.6 13.6L53.7 13.6L52.2 9L53.2 9L53.7 11.2C53.8 11.7 53.9 12.2 54 12.7L54 12.7C54.1 12.3 54.2 11.8 54.4 11.2L55 9L55.8 9L56.4 11.1C56.6 11.6 56.7 12.1 56.8 12.6L56.8 12.6C56.9 12.1 57 11.6 57.1 11.1L57.7 9L58.9 9Z" />
		<path id="Layer" class="shp1" d="M64.1 13.6L63.1 13.6L63.1 11C63.1 10.2 62.8 9.8 62.2 9.8C61.9 9.8 61.7 9.9 61.5 10.1C61.3 10.3 61.2 10.6 61.2 10.9L61.2 13.6L60.2 13.6L60.2 10.3C60.2 9.9 60.2 9.5 60.2 9L61.1 9L61.1 9.7L61.1 9.7C61.2 9.5 61.4 9.3 61.6 9.1C61.9 8.9 62.2 8.8 62.5 8.8C62.9 8.8 63.3 8.9 63.6 9.2C64 9.5 64.1 10 64.1 10.7L64.1 13.6Z" />
		<path id="Layer" class="shp1" d="M66.9 13.6L65.9 13.6L65.9 6.9L66.9 6.9L66.9 13.6Z" />
		<path id="Layer" fill-rule="evenodd" class="shp1" d="M72.9 11.3C72.9 12 72.7 12.6 72.3 13C71.9 13.5 71.3 13.7 70.6 13.7C69.9 13.7 69.4 13.5 69 13C68.6 12.6 68.4 12 68.4 11.3C68.4 10.6 68.6 10 69 9.6C69.4 9.2 70 8.9 70.7 8.9C71.4 8.9 71.9 9.1 72.3 9.6C72.7 10 72.9 10.6 72.9 11.3ZM71.9 11.3C71.9 10.9 71.8 10.5 71.6 10.2C71.4 9.8 71.1 9.7 70.7 9.7C70.3 9.7 70 9.9 69.8 10.2C69.6 10.5 69.5 10.9 69.5 11.3C69.5 11.7 69.6 12.1 69.8 12.4C70 12.8 70.3 12.9 70.7 12.9C71.1 12.9 71.4 12.7 71.6 12.3C71.8 12.1 71.9 11.7 71.9 11.3Z" />
		<path id="Layer" fill-rule="evenodd" class="shp1" d="M77.8 13.6L76.9 13.6L76.8 13.1C76.5 13.5 76 13.7 75.5 13.7C75.1 13.7 74.7 13.6 74.5 13.3C74.3 13 74.1 12.7 74.1 12.4C74.1 11.8 74.3 11.4 74.8 11.1C75.3 10.8 75.9 10.7 76.8 10.7L76.8 10.6C76.8 10 76.5 9.7 75.9 9.7C75.4 9.7 75.1 9.8 74.7 10L74.5 9.3C74.9 9 75.4 8.9 76.1 8.9C77.3 8.9 77.9 9.5 77.9 10.8L77.9 12.5C77.8 13 77.8 13.3 77.8 13.6ZM76.8 12L76.8 11.3C75.7 11.3 75.1 11.6 75.1 12.2C75.1 12.4 75.2 12.6 75.3 12.7C75.4 12.8 75.6 12.9 75.8 12.9C76 12.9 76.2 12.8 76.4 12.7C76.6 12.6 76.7 12.4 76.8 12.2C76.8 12.2 76.8 12.1 76.8 12Z" />
		<path id="Layer" fill-rule="evenodd" class="shp1" d="M83.6 13.6L82.7 13.6L82.7 12.9C82.4 13.5 81.9 13.7 81.2 13.7C80.6 13.7 80.2 13.5 79.8 13.1C79.4 12.7 79.3 12.1 79.3 11.4C79.3 10.7 79.5 10.1 79.9 9.6C80.3 9.2 80.8 9 81.3 9C81.9 9 82.3 9.2 82.6 9.6L82.6 7L83.6 7C83.6 7.4 83.6 13.2 83.6 13.6ZM82.6 11.7C82.6 11.6 82.6 10.7 82.6 10.6C82.5 10.4 82.4 10.2 82.2 10C82 9.8 81.8 9.8 81.5 9.8C81.1 9.8 80.8 10 80.6 10.3C80.4 10.6 80.3 11 80.3 11.5C80.3 12 80.4 12.3 80.6 12.6C80.8 12.9 81.1 13.1 81.5 13.1C81.8 13.1 82.1 13 82.3 12.7C82.5 12.3 82.6 12 82.6 11.7Z" />
		<path id="Layer" fill-rule="evenodd" class="shp1" d="M92.3 11.3C92.3 12 92.1 12.6 91.7 13C91.3 13.5 90.7 13.7 90 13.7C89.3 13.7 88.8 13.5 88.4 13C88 12.6 87.8 12 87.8 11.3C87.8 10.6 88 10 88.4 9.6C88.8 9.1 89.4 8.9 90.1 8.9C90.8 8.9 91.3 9.1 91.7 9.6C92.1 10 92.3 10.6 92.3 11.3ZM91.2 11.3C91.2 10.9 91.1 10.5 90.9 10.2C90.7 9.8 90.4 9.7 90 9.7C89.6 9.7 89.3 9.9 89.1 10.2C88.9 10.5 88.8 10.9 88.8 11.3C88.8 11.7 88.9 12.1 89.1 12.4C89.3 12.8 89.6 12.9 90 12.9C90.4 12.9 90.7 12.7 90.9 12.3C91.1 12.1 91.2 11.7 91.2 11.3Z" />
		<path id="Layer" class="shp1" d="M97.8 13.6L96.8 13.6L96.8 11C96.8 10.2 96.5 9.8 95.9 9.8C95.6 9.8 95.4 9.9 95.2 10.1C95 10.3 94.9 10.6 94.9 10.9L94.9 13.6L93.9 13.6L93.9 10.3C93.9 9.9 93.9 9.5 93.9 9L94.8 9L94.8 9.7L94.8 9.7C94.9 9.5 95.1 9.3 95.3 9.1C95.6 8.9 95.9 8.8 96.2 8.8C96.6 8.8 97 8.9 97.3 9.2C97.7 9.5 97.8 10 97.8 10.7L97.8 13.6Z" />
		<path id="Layer" class="shp1" d="M104.6 9.8L103.5 9.8L103.5 12C103.5 12.6 103.7 12.8 104.1 12.8C104.3 12.8 104.4 12.8 104.6 12.8L104.6 13.6C104.4 13.7 104.1 13.7 103.8 13.7C103.4 13.7 103.1 13.6 102.9 13.3C102.7 13.1 102.6 12.6 102.6 12.1L102.6 9.8L101.9 9.8L101.9 9L102.6 9L102.6 8.2L103.6 7.9L103.6 9L104.7 9L104.7 9.8L104.6 9.8Z" />
		<path id="Layer" class="shp1" d="M110 13.6L109 13.6L109 11C109 10.2 108.7 9.8 108.1 9.8C107.6 9.8 107.3 10 107.1 10.5C107.1 10.6 107.1 10.7 107.1 10.9L107.1 13.6L106.1 13.6L106.1 6.9L107.1 6.9L107.1 9.7L107.1 9.7C107.4 9.2 107.9 8.9 108.5 8.9C108.9 8.9 109.3 9 109.5 9.3C109.8 9.6 110 10.2 110 10.8L110 13.6Z" />
		<path id="Layer" fill-rule="evenodd" class="shp1" d="M115.5 11.1C115.5 11.3 115.5 11.4 115.5 11.6L112.5 11.6C112.5 12.1 112.7 12.4 112.9 12.6C113.2 12.8 113.5 12.9 113.9 12.9C114.4 12.9 114.8 12.8 115.1 12.7L115.3 13.4C114.9 13.6 114.4 13.7 113.8 13.7C113.1 13.7 112.5 13.5 112.1 13.1C111.7 12.7 111.5 12.1 111.5 11.4C111.5 10.7 111.7 10.1 112.1 9.7C112.5 9.2 113 9 113.7 9C114.4 9 114.9 9.2 115.2 9.7C115.4 10 115.5 10.5 115.5 11.1ZM114.6 10.8C114.6 10.5 114.5 10.2 114.4 10C114.2 9.7 114 9.6 113.6 9.6C113.3 9.6 113 9.7 112.8 10C112.6 10.2 112.5 10.5 112.5 10.8L114.6 10.8Z" />
	</g>
</svg>