<svg xmlns="http://www.w3.org/2000/svg" viewBox="0 0 129 41" width="129" height="41">
	<defs>
		<linearGradient id="grd1" gradientUnits="userSpaceOnUse"  x1="16.767" y1="7.074" x2="22.366" y2="30.064">
			<stop offset="0" stop-color="#006884"  />
			<stop offset="1" stop-color="#8ad1d0"  />
		</linearGradient>
		<linearGradient id="grd2" gradientUnits="userSpaceOnUse"  x1="9.941" y1="10.344" x2="25.197" y2="18.591">
			<stop offset="0" stop-color="#24bbb6"  />
			<stop offset="1" stop-color="#dbe692"  />
		</linearGradient>
		<linearGradient id="grd3" gradientUnits="userSpaceOnUse"  x1="27.494" y1="24.12" x2="27.494" y2="16.172">
			<stop offset="0" stop-color="#fcc072"  />
			<stop offset="1" stop-color="#f58a5b"  />
		</linearGradient>
		<linearGradient id="grd4" gradientUnits="userSpaceOnUse"  x1="12.895" y1="33.769" x2="24.946" y2="21.504">
			<stop offset="0" stop-color="#712b8f"  />
			<stop offset="1" stop-color="#ea1d27"  />
		</linearGradient>
	</defs>
	<style>
		tspan { white-space:pre }
		.shp0 { fill: #000000 } 
		.shp1 { fill: url(#grd1) } 
		.shp2 { fill: url(#grd2) } 
		.shp3 { fill: url(#grd3) } 
		.shp4 { fill: url(#grd4) } 
		.shp5 { fill: #ffffff } 
	</style>
	<g id="Layer">
		<path id="Layer" class="shp0" d="M124.5 40.5L4.5 40.5C2.3 40.5 0.5 38.7 0.5 36.5L0.5 4.5C0.5 2.3 2.3 0.5 4.5 0.5L124.5 0.5C126.7 0.5 128.5 2.3 128.5 4.5L128.5 36.5C128.5 38.7 126.7 40.5 124.5 40.5Z" />
		<path id="Layer" fill-rule="evenodd" class="shp1" d="M10.3 20.1L10.3 9.6C10.3 9 10.8 8.5 11.3 8.5C11.8 8.5 12 8.6 12.3 8.8L31.6 19.4C32 19.6 32.2 19.9 32.2 20.2C32.2 20.5 32 20.8 31.6 21L12.3 31.6C12.1 31.7 11.8 31.9 11.3 31.9C10.8 31.9 10.3 31.4 10.3 30.8L10.3 20.1Z" />
		<path id="Layer" fill-rule="evenodd" class="shp2" d="M22.8 20.2L11.1 8.5C11.2 8.5 11.2 8.5 11.3 8.5C11.8 8.5 12 8.6 12.3 8.8L26.5 16.6L22.8 20.2Z" />
		<path id="Layer" fill-rule="evenodd" class="shp3" d="M26.4 23.7L22.8 20.1L26.5 16.4L31.6 19.2C32 19.4 32.2 19.7 32.2 20C32.2 20.3 32 20.6 31.6 20.8L26.4 23.7Z" />
		<path id="Layer" fill-rule="evenodd" class="shp4" d="M11.2 31.7L11.2 31.7L22.8 20.1L26.4 23.7L12.3 31.4C12 31.6 11.8 31.7 11.2 31.7C11.3 31.7 11.3 31.7 11.2 31.7Z" />
		<path id="Layer" fill-rule="evenodd" class="shp5" d="M70.5 32.9L72.1 32.2C72.2 32.4 72.4 32.7 72.6 33C73 33.4 73.6 33.8 74.2 33.8C74.8 33.8 75.5 33.5 75.9 33C76.2 32.5 76.4 32 76.4 31.3L76.4 30.7C75.2 32.2 72.7 32 71.3 30.4C69.8 28.8 69.8 26.1 71.3 24.5C72.8 23 75 22.8 76.3 24.2L76.3 23.5L78 23.5L78 31C78 32.9 77.3 34 76.4 34.7C75.8 35.2 74.9 35.4 74.1 35.4C73.2 35.3 72.3 35 71.6 34.4C71.1 34 70.7 33.3 70.5 32.9ZM115.2 30.8L112.2 23.9L113.9 23.9L116 28.8L118.1 23.9L119.8 23.9L115.2 34.8L113.5 34.8L115.2 30.8ZM104.7 29.1C104.7 28.5 104.9 27.9 105.3 27.5C106 26.8 107 26.5 108.1 26.5C108.8 26.5 109.4 26.6 109.9 26.9C109.9 25.7 108.9 25.2 108.1 25.2C107.4 25.2 106.7 25.6 106.4 26.3L104.9 25.7C105.2 25 106 23.7 108 23.7C109 23.7 110 24 110.6 24.7C111.2 25.4 111.4 26.2 111.4 27.3L111.4 31.5L109.7 31.5L109.7 30.8C109.5 31.1 109.1 31.3 108.8 31.5C108.4 31.7 107.9 31.8 107.4 31.8C106.8 31.7 105.9 31.5 105.4 31C104.9 30.5 104.7 29.8 104.7 29.1ZM56.3 23.2C58.9 23.2 60.5 25.4 60.5 27.4C60.5 29.4 59 31.6 56.3 31.6C53.6 31.6 52.1 29.4 52.1 27.4C52.1 25.4 53.6 23.2 56.3 23.2ZM65.3 23.2C67.9 23.2 69.5 25.4 69.5 27.4C69.5 29.4 68 31.6 65.3 31.6C62.7 31.6 61.1 29.4 61.1 27.4C61.1 25.4 62.6 23.2 65.3 23.2ZM40.9 20.4C42.2 19.1 43.8 18.5 45.5 18.5C47.1 18.5 48.7 19.1 49.9 20.3L48.7 21.6C46.9 19.8 44 19.9 42.3 21.7C40.5 23.6 40.5 26.5 42.3 28.4C44.1 30.3 47.1 30.4 48.9 28.5C49.5 27.9 49.7 27.1 49.8 26.3L45.6 26.3L45.6 24.5L51.5 24.5C51.6 24.9 51.6 25.4 51.6 25.9C51.6 27.4 51 28.9 50 29.9C48.9 31 47.3 31.6 45.7 31.6C43.9 31.5 42.1 30.9 40.8 29.6C38.3 27.1 38.4 23 40.9 20.4ZM83.1 24.3C84.6 22.7 87.1 22.7 88.5 24.3C89 24.8 89.3 25.5 89.6 26.2L84.1 28.5C84.4 29.2 85.1 29.8 86.1 29.8C87 29.8 87.6 29.5 88.2 28.6L89.7 29.6C89.5 29.8 89.3 30 89.2 30.2C87.5 31.9 84.6 31.9 83.1 30.3C81.6 28.7 81.6 26 83.1 24.3ZM93.5 20.4L97.1 20.4C99.2 20.4 100.9 21.9 100.9 23.7C100.9 25.5 99.4 27 97.5 27L95.3 27L95.3 31.4L93.5 31.4L93.5 20.4ZM101.9 20.4L103.6 20.4L103.6 31.5L101.9 31.5L101.9 20.4ZM79.3 18.9L81.1 18.9L81.1 31.3L79.3 31.3L79.3 18.9ZM108.2 27.8C107 27.8 106.3 28.4 106.3 29.1C106.3 29.8 107 30.2 107.7 30.2C108.7 30.2 109.8 29.4 109.8 28.2C109.4 27.9 108.8 27.8 108.2 27.8ZM56.3 24.9C54.8 24.9 54 26.2 54 27.4C54 28.6 54.8 29.9 56.3 29.9C57.7 29.9 58.6 28.6 58.6 27.4C58.6 26.2 57.8 24.9 56.3 24.9ZM65.3 24.9C63.8 24.9 63 26.2 63 27.4C63 28.6 63.8 29.9 65.3 29.9C66.8 29.9 67.6 28.6 67.6 27.4C67.6 26.2 66.8 24.9 65.3 24.9ZM76.6 27.8C76.6 27.7 76.6 27.5 76.6 27.4C76.6 27.3 76.6 27.1 76.6 27L76.6 26.9C76.6 26.8 76.5 26.6 76.5 26.5C76.2 25.5 75.3 24.8 74.4 24.8C73.2 24.8 72.2 26 72.2 27.3C72.2 28.7 73.2 29.8 74.5 29.8C75.3 29.9 76.1 29.2 76.5 28.1C76.5 28 76.5 27.9 76.6 27.8ZM87.5 25.6C87.1 24.9 86.5 24.7 86 24.7C84.5 24.8 83.6 26.4 83.8 27.2L87.5 25.6ZM99.1 23.8C99.1 22.8 98.3 22.1 97.2 22.1L95.2 22.1L95.2 25.6L97.3 25.6C98.3 25.6 99.1 24.8 99.1 23.8Z" />
		<path id="Layer" class="shp5" d="M114.8 32.8L114.8 32.8L114.7 32.8L114.7 32.8L114.7 32.7L114.7 32.7L114.8 32.7L114.8 32.7L114.7 32.7L114.7 32.7L114.7 32.8L114.7 32.8L114.8 32.8Z" />
		<path id="Layer" fill-rule="evenodd" class="shp5" d="M114.8 32.8L114.8 32.8C114.8 32.7 114.8 32.7 114.8 32.8L114.8 32.8C114.8 32.7 114.8 32.7 114.8 32.8L114.8 32.8L114.8 32.8L114.8 32.8L114.8 32.8L114.8 32.8L114.8 32.8L114.8 32.8ZM114.8 32.7L114.8 32.7L114.8 32.7L114.8 32.7L114.8 32.7L114.8 32.7L114.8 32.7Z" />
		<path id="Layer" class="shp5" d="M114.8 32.8L114.8 32.8L114.8 32.7L114.8 32.7L114.8 32.7L114.8 32.7L114.8 32.7L114.8 32.7L114.8 32.7L114.8 32.7L114.8 32.8L114.8 32.8L114.8 32.8Z" />
		<path id="Layer" fill-rule="evenodd" class="shp5" d="M114.8 32.8L114.8 32.8L114.8 32.8L114.8 32.8L114.8 32.8L114.8 32.8L114.8 32.8L114.8 32.8L114.8 32.8ZM114.8 32.7L114.8 32.7L114.8 32.7L114.8 32.7L114.8 32.7L114.8 32.7Z" />
		<path id="Layer" class="shp5" d="M114.8 32.7L114.8 32.7L114.8 32.7L114.8 32.7L114.8 32.8L114.8 32.8L114.8 32.7L114.8 32.7L114.8 32.7Z" />
		<path id="Layer" class="shp5" d="M114.8 32.8L114.8 32.8L114.8 32.7L114.8 32.7L114.8 32.7L114.8 32.7L114.8 32.7L114.8 32.7L114.8 32.7L114.8 32.7L114.8 32.8L114.8 32.8L114.8 32.8Z" />
		<path id="Layer" fill-rule="evenodd" class="shp5" d="M114.8 32.8L114.8 32.8L114.8 32.8L114.8 32.8L114.8 32.8L114.8 32.8C114.8 32.7 114.8 32.7 114.8 32.8ZM114.8 32.8L114.8 32.8C114.8 32.7 114.8 32.7 114.8 32.8L114.8 32.8L114.8 32.8L114.8 32.8L114.8 32.8Z" />
		<path id="Layer" fill-rule="evenodd" class="shp5" d="M114.9 32.8L114.9 32.8L114.9 32.8L114.9 32.8L114.9 32.8L114.9 32.8C114.9 32.7 114.9 32.7 114.9 32.8ZM114.9 32.8L114.9 32.8C114.9 32.7 114.9 32.7 114.9 32.8C114.9 32.7 114.9 32.7 114.9 32.8L114.9 32.8C114.9 32.7 114.9 32.7 114.9 32.8L114.9 32.8L114.9 32.8L114.9 32.8L114.9 32.8ZM114.9 32.7L114.9 32.7L114.9 32.7L114.9 32.7L114.9 32.7L114.9 32.7L114.9 32.7L114.9 32.7Z" />
		<path id="Layer" class="shp5" d="M114.9 32.7L114.9 32.7L114.9 32.7L114.9 32.7L114.9 32.7L114.9 32.7L114.9 32.7L114.9 32.7L114.9 32.8L114.9 32.8L114.9 32.7L114.9 32.7Z" />
		<path id="Layer" class="shp5" d="M114.9 32.8L114.9 32.8L114.9 32.7L114.9 32.7L114.9 32.8L114.9 32.8L114.9 32.8Z" />
		<path id="Layer" fill-rule="evenodd" class="shp5" d="M114.9 32.7L114.9 32.7C114.9 32.8 114.9 32.8 114.9 32.7C114.9 32.8 114.9 32.8 114.9 32.7L114.9 32.7L114.9 32.7L114.9 32.7ZM114.9 32.8L114.9 32.8C114.9 32.7 114.9 32.7 114.9 32.8C114.9 32.7 114.9 32.7 114.9 32.8L114.9 32.8L114.9 32.8L114.9 32.8Z" />
		<path id="Layer" fill-rule="evenodd" class="shp5" d="M114.9 32.8L114.9 32.8L114.9 32.8L114.9 32.8L114.9 32.8L114.9 32.8L114.9 32.8L114.9 32.8L114.9 32.8C114.9 32.7 114.9 32.7 114.9 32.8C114.9 32.7 114.9 32.7 114.9 32.8L114.9 32.8C114.9 32.7 114.9 32.7 114.9 32.8C114.9 32.7 114.9 32.7 114.9 32.8L114.9 32.8L114.9 32.8L114.9 32.8L114.9 32.8Z" />
		<path id="Layer" fill-rule="evenodd" class="shp5" d="M115 32.7L115 32.7C115 32.8 115 32.8 115 32.7C115 32.8 114.9 32.8 115 32.7L115 32.7C114.9 32.7 115 32.7 115 32.7L115 32.7ZM115 32.8L115 32.8C115 32.7 115 32.7 115 32.8C114.9 32.7 114.9 32.7 115 32.8L115 32.8C114.9 32.8 114.9 32.8 115 32.8L115 32.8Z" />
		<path id="Layer" class="shp5" d="M115 32.8L115 32.7L115 32.7L115 32.7L115 32.7L115 32.7L115 32.8L115 32.8L115 32.7L115 32.7L115 32.8L115 32.8L115 32.7L115 32.7L115 32.8L115 32.8Z" />
		<path id="Layer" fill-rule="evenodd" class="shp5" d="M115 32.8L115 32.8L115 32.8L115 32.8L115 32.8L115 32.8L115 32.8L115 32.8L115 32.8ZM115 32.7L115 32.7L115 32.7L115 32.7L115 32.7L115 32.7Z" />
		<path id="Layer" fill-rule="evenodd" class="shp5" d="M115 32.8C115 32.7 115 32.7 115 32.8C115 32.7 115 32.7 115 32.8C115 32.7 115 32.7 115 32.8C115 32.7 115 32.7 115 32.8L115 32.8C115 32.7 115 32.7 115 32.8C115 32.7 115 32.7 115 32.8C115 32.7 115 32.7 115 32.8C115 32.7 115 32.7 115 32.8L115 32.8L115 32.8L115 32.8L115 32.8L115 32.8Z" />
		<path id="Layer" class="shp5" d="M115.1 32.7L115 32.7L115 32.7L115.1 32.7L115.1 32.8L115.1 32.8L115.1 32.7L115.1 32.7L115.1 32.7Z" />
		<path id="Layer" class="shp5" d="M115.1 32.8L115.1 32.8L115.1 32.7L115.1 32.7L115.1 32.7L115.1 32.7L115.1 32.7L115.1 32.7L115.1 32.7L115.1 32.7L115.1 32.8L115.1 32.8L115.1 32.8Z" />
		<path id="Layer" fill-rule="evenodd" class="shp5" d="M115.1 32.8L115.1 32.8C115.1 32.7 115.1 32.7 115.1 32.8L115.1 32.8C115.1 32.7 115.1 32.7 115.1 32.8L115.1 32.8L115.1 32.8L115.1 32.8L115.1 32.8L115.1 32.8L115.1 32.8L115.1 32.8ZM115.1 32.7L115.1 32.7L115.1 32.7L115.1 32.7L115.1 32.7L115.1 32.7L115.1 32.7Z" />
		<path id="Layer" class="shp5" d="M39.4 10.6C39.4 8.8 40.7 7.7 42.3 7.7C43.4 7.7 44.1 8.2 44.6 8.9L43.8 9.4C43.5 9 43 8.7 42.3 8.7C41.2 8.7 40.4 9.5 40.4 10.7C40.4 11.9 41.2 12.7 42.3 12.7C42.9 12.7 43.4 12.4 43.6 12.2L43.6 11.3L42 11.3L42 10.4L44.7 10.4L44.7 12.5C44.2 13.1 43.4 13.5 42.4 13.5C40.7 13.5 39.4 12.3 39.4 10.6Z" />
		<path id="Layer" class="shp5" d="M45.9 13.4L45.9 7.8L49.7 7.8L49.7 8.7L46.8 8.7L46.8 10.1L49.6 10.1L49.6 11L46.8 11L46.8 12.6L49.7 12.6L49.7 13.5L45.9 13.4L45.9 13.4Z" />
		<path id="Layer" class="shp5" d="M52.5 13.4L52.5 8.7L50.8 8.7L50.8 7.8L55.2 7.8L55.2 8.7L53.5 8.7L53.5 13.4L52.5 13.4Z" />
		<path id="Layer" class="shp5" d="M58.6 13.4L58.6 7.8L59.6 7.8L59.6 13.4L58.6 13.4Z" />
		<path id="Layer" class="shp5" d="M62.3 13.4L62.3 8.7L60.6 8.7L60.6 7.8L65 7.8L65 8.7L63.3 8.7L63.3 13.4L62.3 13.4Z" />
		<path id="Layer" fill-rule="evenodd" class="shp5" d="M68.2 10.6C68.2 8.9 69.4 7.7 71.1 7.7C72.8 7.7 74 8.9 74 10.6C74 12.3 72.8 13.5 71.1 13.5C69.4 13.5 68.2 12.2 68.2 10.6ZM72.9 10.6C72.9 9.4 72.2 8.6 71 8.6C69.9 8.6 69.1 9.5 69.1 10.6C69.1 11.8 69.8 12.6 71 12.6C72.2 12.6 72.9 11.7 72.9 10.6Z" />
		<path id="Layer" class="shp5" d="M79 13.4L76.1 9.4L76.1 13.4L75.1 13.4L75.1 7.8L76.1 7.8L79 11.7L79 7.8L80 7.8L80 13.4L79 13.4Z" />
	</g>
</svg>