<svg id="icons" xmlns="http://www.w3.org/2000/svg" viewBox="0 0 104 104"><defs><style>.cls-1{fill:#212833}.cls-3{fill:none}</style><linearGradient id="Dégradé_sans_nom_33" x1="-3697.51" y1="3625.35" x2="-3697.51" y2="3555.57" gradientTransform="rotate(45 2455.869 6361.504)" gradientUnits="userSpaceOnUse"><stop offset="0" stop-color="#f0b90b"/><stop offset=".27" stop-color="#f1bc10"/><stop offset=".59" stop-color="#f4c61f"/><stop offset=".94" stop-color="#fad737"/><stop offset=".99" stop-color="#fbda3c"/></linearGradient></defs><path class="cls-1" d="M60.66 39.64h2.4v2.5h-2.4zm-5.29 0h2.4v2.5h-2.4zm-5.29 0h2.4v2.5h-2.4zm-5.28 0h2.4v2.5h-2.4zm-5.29 0h2.4v2.5h-2.4zm-5.29 0h2.4v2.5h-2.4zm-5.29 0h2.4v2.5h-2.4zm-5.29 0h2.4v2.5h-2.4zm-5.29 0h2.4v2.5h-2.4z"/><path fill="url(#Dégradé_sans_nom_33)" d="M86.01 23.47L42.66 66.83l-3.13 8.83 8.83-3.13 43.35-43.36-5.7-5.7z"/><path class="cls-1" d="M95.61 33.06L80.36 48.3l-1.77-1.76 15.24-15.25 1.78 1.77zm0-7.77l-.89.88-.89.88-5.69-5.7.89-.88.88-.88 5.7 5.7zM24.84 61.94h18.47l-2.5 2.5H24.84v-2.5zm29.65-11.18l-2.5 2.5H24.84v-2.5h29.65z"/><path class="cls-1" d="M66 59.18V88.5H15.46V42.14H13V91h55.45V56.68zM57.77 24.5v-5h-2.4v5h-8.18v-5h-2.4v5h-8.18v-5h-2.4v5H26v-5h-2.4v5H13v15.14h2.5V27h8.18v5H26v-5h8.17v5h2.4v-5h8.18v5h2.4v-5h8.18v5h2.4v-5H66v12.29l2.5-2.5V24.5z"/><path class="cls-1" d="M24.84 73.11h11.9v2.5h-11.9z"/><path class="cls-3" d="M36.69 74.66l-.34 1h.39v-1.14z"/><path class="cls-3" d="M0 0h104v104H0z"/></svg>