<?xml version="1.0" standalone="no"?><!DOCTYPE svg PUBLIC "-//W3C//DTD SVG 1.1//EN" "http://www.w3.org/Graphics/SVG/1.1/DTD/svg11.dtd"><svg t="1542130794444" class="icon" style="" viewBox="0 0 1024 1024" version="1.1" xmlns="http://www.w3.org/2000/svg" p-id="1697" xmlns:xlink="http://www.w3.org/1999/xlink" width="200" height="200"><defs><style type="text/css"></style></defs><path d="M94.208 120.470588c-51.440941 0-93.364706 41.562353-93.364706 92.641882l-0.843294 0 0 658.913882c0 51.079529 41.863529 92.641882 93.364706 92.641882l812.694588 0 0-99.689412 117.940706 0 0-744.508235-929.792 0zM93.364706 904.372706c-18.251294 0-33.129412-14.516706-33.129412-32.406588l0-577.234824c1.445647 0.421647 3.252706 0.301176 4.698353 0.722824 8.613647 2.529882 17.648941 4.096 27.286588 4.276706 0.421647 0 0.722824 0.180706 1.144471 0.180706l752.519529 0 0 182.814118-172.212706 0c-51.922824 0-94.147765 40.538353-94.147765 90.352941l0 60.235294c0 49.814588 42.224941 90.352941 94.147765 90.352941l172.212706 0 0 180.705882-752.519529 0zM673.611294 663.431529c-18.733176 0-33.912471-13.492706-33.912471-30.117647l0-60.235294c0-16.624941 15.239529-30.117647 33.912471-30.117647l290.153412 0 0 120.470588-290.153412 0zM963.764706 804.683294l-57.705412 0 0-81.016471 57.705412 0 0 81.016471zM906.059294 482.725647l0-243.049412-811.851294 0c-16.444235 0-33.129412-8.252235-33.129412-26.563765 0.060235-17.889882 14.938353-32.406588 33.129412-32.406588l869.556706 0 0 302.019765-57.705412 0z" p-id="1698"></path></svg>