<svg xmlns="http://www.w3.org/2000/svg" viewBox="0 0 32 32" width="32" height="32">
	<style>
		tspan { white-space:pre }
		.shp0 { fill: #000000 } 
	</style>
	<g id="Layer">
		<g id="Layer">
			<path id="Layer" fill-rule="evenodd" class="shp0" d="M30.66 13.91C30.99 13.91 31.31 14.18 31.31 14.57L31.31 23.04C31.31 23.43 31.06 23.69 30.66 23.69L29.94 23.69L29.94 29.1C29.94 30.34 28.97 31.31 27.73 31.31L2.84 31.31C1.66 31.31 0.69 30.34 0.69 29.1L0.69 8.64C0.69 7.46 1.58 6.51 2.68 6.42C2.69 6.42 2.7 6.42 2.71 6.42L24.99 0.69C25.06 0.69 25.13 0.69 25.13 0.69C26.23 0.69 27.14 1.66 27.14 2.9L27.14 6.42L27.73 6.42C28.91 6.42 29.88 7.4 29.88 8.64L29.88 13.91L30.66 13.91ZM7.92 6.42L25.9 6.42L25.9 2.9C25.9 2.38 25.57 1.99 25.25 1.92L7.92 6.42ZM28.64 23.69L22.13 23.69C19.45 23.69 17.24 21.54 17.24 18.8C17.24 16.06 19.39 13.91 22.13 13.91L28.57 13.91L28.57 8.64C28.57 8.12 28.18 7.66 27.66 7.66L2.84 7.66C2.32 7.66 1.92 8.12 1.92 8.64L1.92 29.1C1.92 29.62 2.32 30.08 2.84 30.08L27.73 30.08C28.25 30.08 28.64 29.62 28.64 29.1L28.64 23.69ZM30.01 15.29L22.13 15.29C20.18 15.29 18.54 16.92 18.54 18.87C18.54 20.82 20.17 22.45 22.13 22.45L30.01 22.45L30.01 15.29Z" />
		</g>
	</g>
</svg>